# xmcd
#
# Track frame offsets:
#	150
#	13760
#	24232
#	40802
#	55462
#	65930
#	76260
#	94035
#	108480
#	126007
#	140642
#	158827
#
# Disc length: 2352 seconds
#
# Revision: 0
# Processed by: cddbd v1.5.2PL0 Copyright (c) Steve Scherf et al.
# Submitted via: EasyCDDAExtractor 16.0.6.1
#
DISCID=9f092e0c
DTITLE=Τραγούδια του γάμου
DYEAR=2003
DGENRE=Παραδοσιακή
TTITLE0=Καρναβάς Τάκης - Η ευχή
TTITLE1=Άνευ ερμηνευτού - Πατινάδα γάμου [οργανικό]
TTITLE2=Καρναβάς Τάκης - Αφήνω γεια μαννούλα μου
TTITLE3=Άνευ ερμηνευτού - Πατινάδα γάμου
TTITLE4=Καρναβάς Τάκης - Έβγα κυρά και πεθερά
TTITLE5=Κοτρώτσου Γιούλα - Πες μου ποια μάννα σ' έκανε
TTITLE6=Κοτρώτσου Γιούλα - Με τ' άσπρα σ' είδα σήμερα
TTITLE7=Κοτρώτσου Γιούλα - Ένα τραγούδι θα σάς πω
TTITLE8=Καρναβάς Τάκης - Χίλια καλώς τον βρήκανε
TTITLE9=Κοτρώτσου Γιούλα - Τώρα τα πουλιά
TTITLE10=Καρναβάς Τάκης - Σήκωσ' το χέρι σου γαμπρέ
TTITLE11=Καρναβάς Τάκης - Σε τούτη τάβλα πού 'μαστε
EXTD=
EXTT0=
EXTT1=
EXTT2=
EXTT3=
EXTT4=
EXTT5=
EXTT6=
EXTT7=
EXTT8=
EXTT9=
EXTT10=
EXTT11=
PLAYORDER=
